<svg width="64" height="62" viewBox="0 0 64 62" fill="none" xmlns="http://www.w3.org/2000/svg">
<g filter="url(#filter0_d_1695_930)">
<path d="M31.9993 9.97656C41.1683 9.97656 54.1232 14.4678 54.1232 14.4678C54.1232 14.4678 55.6651 22.7505 55.1855 26.9363C54.7059 31.1221 53.3953 35.1682 51.3315 38.8341C49.2677 42.5 46.4928 45.7109 43.1718 48.276C39.8508 50.8411 36.0514 52.7081 31.9993 53.766C27.9473 52.7081 24.1479 50.8411 20.8269 48.276C17.5059 45.7109 14.731 42.5 12.6672 38.8341C10.6034 35.1682 9.29277 31.1221 8.81318 26.9363C8.33359 22.7505 9.87545 14.4678 9.87545 14.4678C9.87545 14.4678 22.8304 9.97656 31.9993 9.97656Z" fill="url(#paint0_linear_1695_930)"/>
</g>
<path fill-rule="evenodd" clip-rule="evenodd" d="M44.7458 25.4201C44.8101 25.4201 44.8296 25.3328 44.7714 25.3055L32.1605 19.3861C32.1443 19.3785 32.1256 19.3785 32.1094 19.3861L19.4985 25.3055C19.4403 25.3328 19.4598 25.4201 19.5241 25.4201H44.7458ZM41.1375 26.008C41.1375 25.9747 41.1106 25.9478 41.0774 25.9478H23.1583C23.125 25.9478 23.0981 25.9747 23.0981 26.008V27.3991C23.0981 27.4324 23.125 27.4593 23.1583 27.4593H41.0774C41.1106 27.4593 41.1375 27.4324 41.1375 27.3991V26.008ZM23.0981 38.0329C23.0981 37.9996 23.125 37.9727 23.1583 37.9727H41.0774C41.1106 37.9727 41.1375 37.9996 41.1375 38.0329V38.8987C41.1375 38.9319 41.1645 38.9589 41.1977 38.9589H41.636C41.6692 38.9589 41.6961 38.9858 41.6961 39.019V39.9173C41.6961 39.9505 41.6692 39.9775 41.636 39.9775H22.5997C22.5665 39.9775 22.5395 39.9505 22.5395 39.9173V39.019C22.5395 38.9858 22.5665 38.9589 22.5997 38.9589H23.038C23.0712 38.9589 23.0981 38.9319 23.0981 38.8987V38.0329ZM22.0122 40.5641C22.0122 40.5309 22.0391 40.504 22.0723 40.504H42.1601C42.1933 40.504 42.2203 40.5309 42.2203 40.5641V41.3967C42.2203 41.4299 42.1933 41.4569 42.1601 41.4569H22.0723C22.0391 41.4569 22.0122 41.4299 22.0122 41.3967V40.5641ZM26.0232 27.9844C25.3699 27.9844 24.8403 28.514 24.8403 29.1673V36.2648C24.8403 36.9181 25.3699 37.4477 26.0232 37.4477C26.6765 37.4477 27.2061 36.9181 27.2061 36.2648V29.1673C27.2061 28.514 26.6765 27.9844 26.0232 27.9844ZM33.1489 29.1673C33.1489 28.514 33.6785 27.9844 34.3318 27.9844C34.9851 27.9844 35.5147 28.514 35.5147 29.1673V36.2648C35.5147 36.9181 34.9851 37.4477 34.3318 37.4477C33.6785 37.4477 33.1489 36.9181 33.1489 36.2648V29.1673ZM30.1951 27.9844C29.5418 27.9844 29.0122 28.514 29.0122 29.1673V36.2648C29.0122 36.9181 29.5418 37.4477 30.1951 37.4477C30.8484 37.4477 31.378 36.9181 31.378 36.2648V29.1673C31.378 28.514 30.8484 27.9844 30.1951 27.9844ZM37.3247 29.1673C37.3247 28.514 37.8543 27.9844 38.5076 27.9844C39.1609 27.9844 39.6905 28.514 39.6905 29.1673V36.2648C39.6905 36.9181 39.1609 37.4477 38.5076 37.4477C37.8543 37.4477 37.3247 36.9181 37.3247 36.2648V29.1673Z" fill="white"/>
<defs>
<filter id="filter0_d_1695_930" x="-2.50737" y="0.245568" width="69.0138" height="66.2457" filterUnits="userSpaceOnUse" color-interpolation-filters="sRGB">
<feFlood flood-opacity="0" result="BackgroundImageFix"/>
<feColorMatrix in="SourceAlpha" type="matrix" values="0 0 0 0 0 0 0 0 0 0 0 0 0 0 0 0 0 0 127 0" result="hardAlpha"/>
<feMorphology radius="1.49708" operator="dilate" in="SourceAlpha" result="effect1_dropShadow_1695_930"/>
<feOffset dy="1.49708"/>
<feGaussianBlur stdDeviation="4.8655"/>
<feComposite in2="hardAlpha" operator="out"/>
<feColorMatrix type="matrix" values="0 0 0 0 0 0 0 0 0 0.411765 0 0 0 0 0.792157 0 0 0 0.08 0"/>
<feBlend mode="normal" in2="BackgroundImageFix" result="effect1_dropShadow_1695_930"/>
<feBlend mode="normal" in="SourceGraphic" in2="effect1_dropShadow_1695_930" result="shape"/>
</filter>
<linearGradient id="paint0_linear_1695_930" x1="9.78025" y1="6.60814" x2="62.2395" y2="44.914" gradientUnits="userSpaceOnUse">
<stop stop-color="#0069CA"/>
<stop offset="1" stop-color="#4D97DC"/>
</linearGradient>
</defs>
</svg>
