<svg width="77" height="78" viewBox="0 0 77 78" fill="none" xmlns="http://www.w3.org/2000/svg">
<path d="M32.0833 67.8758H44.9167C44.9167 71.405 42.0292 74.2925 38.5 74.2925C34.9708 74.2925 32.0833 71.405 32.0833 67.8758ZM67.375 61.4591V64.6675H9.625V61.4591L16.0417 55.0425V35.7925C16.0417 25.8466 22.4583 17.1841 32.0833 14.2966V13.3341C32.0833 9.80498 34.9708 6.91748 38.5 6.91748C42.0292 6.91748 44.9167 9.80498 44.9167 13.3341V14.2966C54.5417 17.1841 60.9583 25.8466 60.9583 35.7925V55.0425L67.375 61.4591ZM54.5417 35.7925C54.5417 26.8091 47.4833 19.7508 38.5 19.7508C29.5167 19.7508 22.4583 26.8091 22.4583 35.7925V58.2508H54.5417V35.7925Z" fill="#93CBFF"/>
<circle cx="53" cy="22.5" r="10.5" fill="white"/>
<path d="M53 10.25C46.175 10.25 40.75 15.675 40.75 22.5C40.75 29.325 46.175 34.75 53 34.75C59.825 34.75 65.25 29.325 65.25 22.5C65.25 15.675 59.825 10.25 53 10.25ZM57.725 28.625L53 23.9L48.275 28.625L46.875 27.225L51.6 22.5L46.875 17.775L48.275 16.375L53 21.1L57.725 16.375L59.125 17.775L54.4 22.5L59.125 27.225L57.725 28.625Z" fill="#0069CA"/>
</svg>
