<svg width="77" height="77" viewBox="0 0 77 77" fill="none" xmlns="http://www.w3.org/2000/svg">
<mask id="mask0_510_3309" style="mask-type:luminance" maskUnits="userSpaceOnUse" x="0" y="0" width="77" height="77">
<path d="M0 7.62939e-06H77V77H0V7.62939e-06Z" fill="white"/>
</mask>
<g mask="url(#mask0_510_3309)">
<path d="M38.5004 74.7441C33.6677 65.079 7.08887 65.079 7.08887 45.7488C7.08887 33.6675 11.9214 33.6675 11.9214 21.586C11.9214 16.7535 7.08887 11.921 7.08887 11.921L16.7539 2.25587C16.7539 2.25587 17.3011 2.6932 18.1626 3.38304C24.2396 8.24337 32.9985 7.75896 38.5004 2.25587H38.5016C44.0034 7.75896 52.7623 8.24337 58.8393 3.38304C59.7008 2.6932 60.2468 2.25587 60.2468 2.25587L69.9118 11.921C69.9118 11.921 65.0793 16.7535 65.0793 21.586C65.0793 33.6675 69.9118 33.6675 69.9118 45.7488C69.9118 65.079 43.333 65.079 38.5004 74.7441Z" stroke="#93CBFF" stroke-width="4.51172" stroke-miterlimit="10" stroke-linecap="round" stroke-linejoin="round"/>
<path d="M38.5002 19.1698L43.4717 29.2421L54.5866 30.8573L46.544 38.697L48.4419 49.7671L38.5002 44.5407L28.5585 49.7671L30.4576 38.697L22.415 30.8573L33.53 29.2421L38.5002 19.1698Z" stroke="#0069CA" stroke-width="4.51172" stroke-miterlimit="10" stroke-linecap="round" stroke-linejoin="round"/>
</g>
</svg>
