<svg width="32" height="32" viewBox="0 0 32 32" fill="none" xmlns="http://www.w3.org/2000/svg">
<path d="M7.66797 26.6669C7.11568 26.6669 6.66797 26.2192 6.66797 25.6669V13.1647C6.66797 12.8512 6.81502 12.5558 7.0652 12.3668L15.3985 6.07156C15.7552 5.80211 16.2474 5.80211 16.6041 6.07156L24.9374 12.3668C25.1876 12.5558 25.3346 12.8512 25.3346 13.1647V25.6669C25.3346 26.2192 24.8869 26.6669 24.3346 26.6669H19.412C18.8597 26.6669 18.412 26.2192 18.412 25.6669V19.1549C18.412 18.6026 17.9643 18.1549 17.412 18.1549H14.5906C14.0384 18.1549 13.5906 18.6026 13.5906 19.1549V25.6669C13.5906 26.2192 13.1429 26.6669 12.5906 26.6669H7.66797Z" fill="#0069CA"/>
</svg>
