 <svg width="32" height="32" viewBox="0 0 32 32" fill="none" xmlns="http://www.w3.org/2000/svg">
<path d="M7.66699 26.1669C7.39085 26.1669 7.16699 25.943 7.16699 25.6669V13.1647C7.16699 13.0079 7.24052 12.8603 7.36561 12.7658L15.6989 6.47052C15.8773 6.33579 16.1234 6.33579 16.3017 6.47052L24.635 12.7658C24.7601 12.8603 24.8337 13.0079 24.8337 13.1647V25.6669C24.8337 25.943 24.6098 26.1669 24.3337 26.1669H19.411C19.1348 26.1669 18.911 25.943 18.911 25.6669V19.1549C18.911 18.3265 18.2394 17.6549 17.411 17.6549H14.5897C13.7612 17.6549 13.0897 18.3265 13.0897 19.1549V25.6669C13.0897 25.943 12.8658 26.1669 12.5897 26.1669H7.66699Z" stroke="currentColor"/>
</svg>
