<svg width="33" height="32" viewBox="0 0 33 32" fill="none" xmlns="http://www.w3.org/2000/svg">
<path d="M7.66668 25.0267C7.47734 25.0267 7.31912 24.9622 7.19201 24.8333C7.0649 24.7044 7.0009 24.5458 7.00001 24.3573C6.99912 24.1689 7.06312 24.0107 7.19201 23.8827C7.3209 23.7547 7.47912 23.6911 7.66668 23.692H9.15468V13.128C9.15468 11.3858 9.70579 9.85378 10.808 8.532C11.9102 7.21022 13.3076 6.38667 15 6.06133V5.33333C15 4.96267 15.1293 4.648 15.388 4.38933C15.6467 4.12978 15.9609 4 16.3307 4C16.7005 4 17.0156 4.12978 17.276 4.38933C17.5365 4.64889 17.6667 4.96356 17.6667 5.33333V6.06133C19.3591 6.38578 20.7565 7.20933 21.8587 8.532C22.9609 9.85467 23.512 11.3867 23.512 13.128V23.692H25C25.1893 23.692 25.3476 23.756 25.4747 23.884C25.6027 24.012 25.6667 24.1707 25.6667 24.36C25.6667 24.5493 25.6027 24.7076 25.4747 24.8347C25.3467 24.9618 25.1885 25.0253 25 25.0253L7.66668 25.0267ZM16.3293 28.5133C15.7356 28.5133 15.2289 28.3022 14.8093 27.88C14.3898 27.4578 14.18 26.9511 14.18 26.36H18.4867C18.4867 26.9556 18.2756 27.4631 17.8533 27.8827C17.4302 28.3022 16.9222 28.5133 16.3293 28.5133Z" fill="#0069CA"/>
</svg>
