<svg width="33" height="32" viewBox="0 0 33 32" fill="none" xmlns="http://www.w3.org/2000/svg">
<path d="M6.85 25.0267V25.1767L7.00001 25.1767L25.6667 25.1753L25.8167 25.1753V25.0253V23.692V23.542H25.6667H23.662V13.128C23.662 11.3511 23.0989 9.78504 21.9739 8.43593C20.876 7.11933 19.4886 6.28588 17.8167 5.93837V4V3.85H17.6667H15H14.85V4V5.93831C13.1781 6.28497 11.7907 7.118 10.6928 8.4346C9.56779 9.7837 9.00467 11.3498 9.00467 13.1267V23.5433H7H6.85V23.6933V25.0267ZM14.18 26.21H14.03V26.36C14.03 26.991 14.2557 27.5356 14.7029 27.9857C15.1506 28.4362 15.6955 28.6633 16.3293 28.6633C16.9622 28.6633 17.5081 28.4363 17.959 27.9892L17.9591 27.9891C18.4096 27.5413 18.6367 26.9955 18.6367 26.36V26.21H18.4867H14.18ZM10.638 13.128V13.1279C10.6371 11.5452 11.1904 10.204 12.3006 9.09548C13.411 7.98688 14.7524 7.43353 16.3334 7.43267C17.9143 7.4318 19.2556 7.98508 20.3659 9.0954C21.4763 10.2057 22.03 11.5471 22.03 13.128V23.5433H10.638V13.128Z" fill="currentColor" stroke="currentColor" stroke-width="0.02"/>
</svg>
