<svg width="48" height="48" viewBox="0 0 48 48" fill="none" xmlns="http://www.w3.org/2000/svg">
<path d="M32.6244 38.0781H31.632C25.9734 38.0781 14.0342 38.0781 8.37269 38.0781C7.26075 38.0781 6.35938 38.9795 6.35938 40.0914C6.35938 41.2033 7.26075 42.1047 8.37269 42.1047H32.6244C33.7363 42.1047 34.6377 41.2033 34.6377 40.0914C34.6377 38.9795 33.7363 38.0781 32.6244 38.0781Z" fill="#00112A"/>
<path d="M31.5275 34.6579C31.5275 33.8222 30.8498 33.1445 30.014 33.1445H10.9665C10.1308 33.1445 9.45312 33.8222 9.45312 34.6579V36.9506H31.5275L31.5275 34.6579Z" fill="#00112A"/>
<path d="M40.8726 30.0097L33.3846 22.5273C32.6618 21.8045 31.6283 21.5843 30.7135 21.8666L28.9268 20.0756C29.9825 18.8709 30.8268 17.5958 31.4263 16.3337L24.198 9.10547C22.6168 9.85654 21.0131 10.986 19.5561 12.4429C18.0992 13.8998 16.9698 15.5092 16.2188 17.0904L23.4413 24.313C24.7032 23.7136 25.9818 22.8695 27.1878 21.8139L28.9799 23.6059C28.9008 23.8657 28.8613 24.1311 28.8613 24.4022C28.8613 25.0798 29.1154 25.7575 29.635 26.2713L37.123 33.7593C38.1564 34.7928 39.8335 34.7928 40.8726 33.7593C41.9036 32.7396 41.9047 31.0306 40.8726 30.0097Z" fill="#00112A"/>
<path d="M32.2731 15.5802C32.8131 16.1202 33.6886 16.1202 34.2286 15.5802C34.7686 15.0402 34.7686 14.1646 34.2286 13.6247L26.9074 6.30343C26.3674 5.76344 25.4919 5.76344 24.9519 6.30343C24.4119 6.84346 24.4119 7.71899 24.9519 8.25898L32.2731 15.5802Z" fill="#00112A"/>
<path d="M20.7262 27.1153C21.2662 27.6553 22.1417 27.6553 22.6817 27.1153C23.2217 26.5753 23.2217 25.6998 22.6817 25.1598L15.3605 17.8386C14.8205 17.2986 13.945 17.2986 13.405 17.8386C12.865 18.3786 12.865 19.2541 13.405 19.7941L20.7262 27.1153Z" fill="#00112A"/>
</svg>
