<svg width="45" height="39" viewBox="0 0 45 39" fill="none" xmlns="http://www.w3.org/2000/svg">
<path fill-rule="evenodd" clip-rule="evenodd" d="M44.942 10.6498C45.0039 10.6498 45.0226 10.5658 44.9666 10.5395L22.5246 0.00548783C22.509 -0.00182944 22.491 -0.0018292 22.4754 0.00548809L0.0333858 10.5395C-0.0226418 10.5658 -0.00389691 10.6498 0.0579958 10.6498H44.942ZM38.368 11.6343C38.368 11.6023 38.342 11.5764 38.3101 11.5764H6.63195C6.59997 11.5764 6.57404 11.6023 6.57404 11.6343V14.1824C6.57404 14.2144 6.59997 14.2403 6.63195 14.2403H38.3101C38.342 14.2403 38.368 14.2144 38.368 14.1824V11.6343ZM6.57404 32.8302C6.57404 32.7982 6.59997 32.7723 6.63195 32.7723H38.3101C38.342 32.7723 38.368 32.7982 38.368 32.8302V34.4519C38.368 34.4839 38.3939 34.5098 38.4259 34.5098H39.2946C39.3266 34.5098 39.3525 34.5357 39.3525 34.5677V36.2472C39.3525 36.2792 39.3266 36.3051 39.2946 36.3051H5.64745C5.61546 36.3051 5.58954 36.2792 5.58954 36.2472V34.5677C5.58954 34.5357 5.61546 34.5098 5.64745 34.5098H6.51613C6.54811 34.5098 6.57404 34.4839 6.57404 34.4519V32.8302ZM4.66282 37.2895C4.66282 37.2575 4.68875 37.2316 4.72073 37.2316H40.2211C40.253 37.2316 40.279 37.2575 40.279 37.2895V38.8531C40.279 38.8851 40.2531 38.911 40.2211 38.911H4.72074C4.68875 38.911 4.66282 38.8851 4.66282 38.8531V37.2895ZM13.813 15.2249C13.813 15.193 13.787 15.167 13.755 15.167H9.70117C9.66919 15.167 9.64326 15.193 9.64326 15.2249V31.7879C9.64326 31.8199 9.66919 31.8458 9.70117 31.8458H13.755C13.787 31.8458 13.813 31.8199 13.813 31.7879V15.2249ZM24.2953 15.2249C24.2953 15.193 24.3212 15.167 24.3532 15.167H28.407C28.439 15.167 28.465 15.193 28.465 15.2249V31.7879C28.465 31.8199 28.439 31.8458 28.407 31.8458H24.3532C24.3212 31.8458 24.2953 31.8199 24.2953 31.7879V15.2249ZM21.168 15.2249C21.168 15.193 21.1421 15.167 21.1101 15.167H17.0562C17.0242 15.167 16.9983 15.193 16.9983 15.2249V31.7879C16.9983 31.8199 17.0242 31.8458 17.0562 31.8458H21.1101C21.1421 31.8458 21.168 31.8199 21.168 31.7879V15.2249ZM31.6501 15.2249C31.6501 15.193 31.676 15.167 31.708 15.167H35.7619C35.7939 15.167 35.8198 15.193 35.8198 15.2249V31.7879C35.8198 31.8199 35.7939 31.8458 35.7619 31.8458H31.708C31.676 31.8458 31.6501 31.8199 31.6501 31.7879V15.2249Z" fill="white"/>
</svg>
