<svg width="32" height="28" viewBox="0 0 32 28" fill="none" xmlns="http://www.w3.org/2000/svg">
<path fill-rule="evenodd" clip-rule="evenodd" d="M30.973 7.81721C31.0517 7.81721 31.0756 7.71026 31.0043 7.67679L15.5547 0.424953C15.5349 0.415641 15.5119 0.415641 15.4921 0.424953L0.0424891 7.6768C-0.0288138 7.71026 -0.00496113 7.81721 0.073806 7.81721H30.973ZM26.5542 8.53057C26.5542 8.48987 26.5212 8.45687 26.4805 8.45687H4.52777C4.48707 8.45687 4.45407 8.48987 4.45407 8.53057V10.2349C4.45407 10.2756 4.48707 10.3086 4.52777 10.3086H26.4805C26.5212 10.3086 26.5542 10.2756 26.5542 10.2349V8.53057ZM4.43998 23.2657C4.43998 23.225 4.47298 23.192 4.51368 23.192H26.4664C26.5071 23.192 26.5401 23.225 26.5401 23.2657V24.3262C26.5401 24.3669 26.5731 24.3999 26.6138 24.3999H27.1601C27.2008 24.3999 27.2338 24.4329 27.2338 24.4736V25.5741C27.2338 25.6148 27.2008 25.6478 27.1601 25.6478H3.83869C3.79799 25.6478 3.76499 25.6148 3.76499 25.5741V24.4736C3.76499 24.4329 3.79799 24.3999 3.83869 24.3999H4.36628C4.40698 24.3999 4.43998 24.3669 4.43998 24.3262V23.2657ZM3.1254 26.3664C3.1254 26.3257 3.1584 26.2927 3.1991 26.2927H27.8087C27.8494 26.2927 27.8824 26.3257 27.8824 26.3664V27.3864C27.8824 27.4271 27.8494 27.4601 27.8087 27.4601H3.1991C3.1584 27.4601 3.1254 27.4271 3.1254 27.3864V26.3664ZM8.03481 10.9561C7.23445 10.9561 6.58563 11.6049 6.58563 12.4053V21.1004C6.58563 21.9008 7.23445 22.5496 8.03481 22.5496C8.83518 22.5496 9.484 21.9008 9.484 21.1004V12.4053C9.484 11.6049 8.83518 10.9561 8.03481 10.9561ZM16.7673 12.4053C16.7673 11.6049 17.4162 10.9561 18.2165 10.9561C19.0169 10.9561 19.6657 11.6049 19.6657 12.4053V21.1004C19.6657 21.9008 19.0169 22.5496 18.2165 22.5496C17.4162 22.5496 16.7673 21.9008 16.7673 21.1004V12.4053ZM13.1505 10.9561C12.3502 10.9561 11.7014 11.6049 11.7014 12.4053V21.1004C11.7014 21.9008 12.3502 22.5496 13.1505 22.5496C13.9509 22.5496 14.5997 21.9008 14.5997 21.1004V12.4053C14.5997 11.6049 13.9509 10.9561 13.1505 10.9561ZM21.8831 12.4053C21.8831 11.6049 22.5319 10.9561 23.3323 10.9561C24.1326 10.9561 24.7815 11.6049 24.7815 12.4053V21.1004C24.7815 21.9008 24.1326 22.5496 23.3323 22.5496C22.5319 22.5496 21.8831 21.9008 21.8831 21.1004V12.4053Z" fill="#00112A"/>
</svg>
