<svg width="1280" height="116" viewBox="0 0 1280 116" fill="none" xmlns="http://www.w3.org/2000/svg">
<mask id="mask0_2009_19835" style="mask-type:alpha" maskUnits="userSpaceOnUse" x="0" y="0" width="1280" height="116">
<path d="M0 0H1280V106C1280 111.523 1275.52 116 1270 116H10C4.47715 116 0 111.523 0 106V0Z" fill="url(#paint0_linear_2009_19835)"/>
</mask>
<g mask="url(#mask0_2009_19835)">
<path d="M427.381 -63V-16.482L403.985 -31.8476V-63H403.555L403.628 -62.952V-32.0828L380.232 -47.4484V-63H379.876V-47.4484L356.479 -32.0828V-63H213.603V-47.4484L190.207 -32.0828V-63H189.777L166.454 -47.6824V-63H166.098V-47.4484L142.701 -32.0828V-63H0V-16.083H70.8305L47.4341 -0.717392H0V-0.435425L0.0730414 -0.483395H47.076L23.6796 14.8822H0V15.1162H23.6796L47.076 30.4818H0V30.7158H47.076L23.6796 46.0814H0V46.3154H23.3234L0 61.6342V61.9162H47.076L23.6796 77.2818H0V217.799H142.698V186.882L166.094 202.247V217.799H166.451V202.247L189.847 186.882V217.751L189.774 217.799H190.203V186.648L213.6 171.282V217.8H356.476V202.248L356.549 202.2L356.476 202.152V186.883L379.872 202.248V217.8H380.228V202.482L403.552 217.8H403.981V186.883L427.377 202.248V217.8H427.556V77.283H356.725L380.121 61.9174H427.554V61.6354L427.481 61.6834H380.478L403.874 46.3178H427.554V46.0838H403.874L380.478 30.7182H427.554V30.4842H380.478L403.874 15.1186H427.554V14.8846H404.23L427.554 -0.433086V-0.715061H380.478L403.874 -16.0807H427.554V-63H427.376H427.381ZM380.052 -47.2343L403.626 -31.7516V-16.317H356.476V-31.7516L380.05 -47.2343H380.052ZM403.983 -31.5176L427.128 -16.317H403.983V-31.5176ZM261.36 202.083L237.963 186.718H284.966L308.363 202.083H261.36ZM166.704 170.883L190.1 155.517H237.459L260.856 170.883H166.704ZM118.692 202.083H71.6892L95.0856 186.718H142.089L118.692 202.083ZM23.9308 108.648L47.3272 93.2827V124.152L23.9308 139.518V108.648ZM70.8287 77.517L47.6835 92.7176V77.517H70.8287ZM71.438 46.1516V15.0484L94.8344 -0.317257V61.7524L71.438 77.118V46.2487L71.511 46.2008L71.438 46.1528V46.1516ZM142.09 -31.9166H95.0874L71.691 -47.2822H118.694L142.09 -31.9166ZM237.607 -47.2822H284.61L261.214 -31.9166H214.211L237.607 -47.2822ZM356.226 93.1178L379.623 108.483H332.62L309.223 93.1178H356.226ZM332.295 108.6L308.721 124.083H285.219V93.1166H308.721L332.295 108.599V108.6ZM356.123 186.649V201.918L309.225 171.118H356.123V186.553L356.05 186.601L356.123 186.649ZM261.362 170.883L237.787 155.4L261.362 139.918H284.863V170.884H261.362V170.883ZM237.461 155.283H190.458L213.854 139.918H260.857L237.461 155.283ZM47.582 186.484L24.1856 171.118H118.338L94.9413 186.484H47.582ZM71.0835 140.083V170.883H24.1856L71.0835 140.083ZM213.958 -31.5176L237.103 -16.317H213.958V-31.5176ZM308.719 -31.6826L332.115 -16.317H237.963L261.36 -31.6826H308.719ZM356.121 15.0484V46.1516L332.725 61.5172V-0.552429L356.121 -15.918V14.9512L356.048 14.9992L356.121 15.0472V15.0484ZM261.716 139.683L284.861 124.482V139.683H261.716ZM166.704 139.683L190.1 124.317H213.958H284.61L261.214 139.683H166.704ZM118.945 170.883V155.682L142.09 170.883H118.945ZM142.342 171.117V186.318L119.196 171.117H142.342ZM118.589 170.883H71.438V155.448L95.0126 139.966L118.587 155.448V170.883H118.589ZM118.945 15.0484L142.342 -0.317257V30.483V61.5172L118.945 46.1516V15.0484ZM166.274 -16.035L166.347 -16.083H237.459L260.856 -0.717392H166.345L142.949 -16.083H166.199L166.272 -16.035H166.274ZM308.972 77.1169V46.2476L332.368 30.882V61.7512L308.972 77.1169ZM94.8362 139.75L71.4398 155.116V93.2804L94.8362 108.646V139.749V139.75ZM94.585 77.5158L71.4398 92.7165V77.5158H94.585ZM71.5146 92.9984L94.838 77.6808V108.316L71.5146 92.9984ZM142.701 77.2818V46.4816L166.098 61.8472V92.9505L142.701 108.316V77.2818ZM165.847 -0.718567H142.701V-15.9192L165.847 -0.718567ZM142.701 -0.484566H166.203L189.777 14.998L166.203 30.4806H142.701V-0.485733V-0.484566ZM308.618 46.1505L285.221 61.5161V15.0472L285.294 14.9992L285.221 14.9512V-0.318428L308.618 15.0472V46.1505ZM308.618 77.1169L285.294 61.7992L308.618 46.4816V77.1169ZM284.865 123.917L261.468 108.551V46.4816L284.792 61.7992L284.865 61.8472V77.2818V123.916V123.917ZM190.103 15.1162H237.463L260.859 30.4818H237.611L237.538 30.4339L237.465 30.4818H213.607H166.709L190.105 15.1162H190.103ZM261.112 77.1169L237.716 61.7512V30.882L261.112 46.2476V77.1169ZM190.209 46.2476L213.605 30.882V46.1505L213.532 46.1984L213.605 46.2464V77.3976V92.9493L190.209 108.315V46.2452V46.2476ZM213.354 30.7158L190.209 45.9165V30.7158H213.354ZM213.605 93.2816V124.082H166.707L213.605 93.2816ZM213.961 30.7158H237.106L213.961 45.9165V30.7158ZM237.358 30.8808V61.5161L214.034 46.1984L237.358 30.8808ZM237.967 30.7158H261.215L261.289 30.7638L261.362 30.7158H284.863V61.5161L237.965 30.7158H237.967ZM261.72 30.4818L284.865 15.2812V30.4818H261.72ZM261.289 30.4339L237.965 15.1162H284.612L261.289 30.4339ZM189.851 30.7158V46.1505L166.276 61.6331L142.701 46.1505V30.7158H189.852H189.851ZM166.454 61.8472L189.851 46.4816V77.3508L166.454 92.7165V61.8472ZM189.851 77.6808V108.55L166.454 123.916V93.0464L189.851 77.6808ZM166.098 123.916L142.774 108.598L166.098 93.2804V123.916ZM165.847 124.081H142.701V108.88L165.847 124.081ZM213.961 77.3976V46.4804L237.358 61.846V92.9493L213.961 108.315V77.3976ZM237.714 62.08L261.11 77.4456V108.315L237.714 92.9493V62.08ZM284.865 -16.0853V14.7149L237.967 -16.0853H284.865ZM284.614 14.881H237.611L214.214 -0.484566H261.217L284.614 14.881ZM213.71 -0.484566L237.106 14.881H190.103L166.707 -0.484566H213.71ZM213.961 108.647L237.536 93.1646L261.11 108.647V124.082H213.96V108.647H213.961ZM261.468 108.881L284.614 124.082H261.468V108.881ZM285.221 62.0812L308.366 77.2818H285.221V62.0812ZM332.372 30.5497L308.976 45.9153V15.046L332.372 -0.319603V30.5497ZM308.797 14.8331L285.223 -0.64954V-16.0842H332.374V-0.64954L308.799 14.8331H308.797ZM142.347 -0.883537L119.202 -16.0842H142.347V-0.883537ZM118.951 -15.918L142.274 -0.600395L118.951 14.7172V-15.918ZM95.1978 139.75V108.881L118.594 124.247V155.116L95.1978 139.75ZM118.594 123.917L95.1978 108.551V77.682L118.594 93.0476V123.917ZM95.449 77.5158H142.347V108.316L95.449 77.5158ZM166.205 124.316L166.278 124.364L166.351 124.316H189.599L142.701 155.116V124.316H166.203H166.205ZM309.229 77.2818L356.126 46.4816V77.2818H309.229ZM332.73 -0.883537V-16.0842H355.875L332.73 -0.883537ZM237.539 -16.3661L214.216 -31.6838H260.863L237.539 -16.3661ZM119.203 -16.3182L142.349 -31.5188V-16.3182H119.203ZM118.774 -16.3661L95.4508 -31.6838H142.098L118.774 -16.3661ZM118.345 -16.0842L71.4469 14.7161V-16.0842H118.345ZM118.596 -15.9192V14.9501L95.1996 30.3157V-0.5536L118.596 -15.9192ZM95.1996 30.6468L118.596 15.2812V46.1505L95.1996 61.5161V30.6468ZM118.774 46.3634L142.349 61.846V77.2806H95.1978V61.846L118.772 46.3634H118.774ZM94.8433 77.2806H71.6981L94.8433 62.08V77.2806ZM118.774 171.163L142.098 186.48H95.4508L118.774 171.163ZM118.952 155.349V93.2804L142.276 108.598L142.349 108.646V124.315V155.349L142.276 155.397L142.349 155.445V170.715L118.952 155.349ZM142.958 155.28L166.354 139.914H213.357L189.961 155.28H142.958ZM189.605 155.514L166.281 170.832L142.958 155.514H189.605ZM285.227 170.879V140.079L332.124 170.879H285.227ZM285.478 139.913H332.481L355.877 155.279H308.874L285.478 139.913ZM285.478 139.679L308.801 124.361L332.124 139.679H285.478ZM285.227 139.514V124.313H308.372L285.227 139.514ZM285.227 92.8791V77.6785L308.372 92.8791H285.227ZM356.121 -47.5174H332.976L356.121 -62.718V-47.5174ZM356.121 -47.2834V-16.317H332.62L309.045 -31.7996L332.62 -47.2822H356.121V-47.2834ZM308.719 -31.9178H261.716L285.112 -47.2834H332.115L308.719 -31.9178ZM142.698 -16.3182V-31.5188L165.843 -16.3182H142.698ZM71.1868 -47.2834L94.5832 -31.9178H47.5802L24.1838 -47.2834H71.1868ZM47.5802 -31.6838H94.9395L118.336 -16.3182H24.1838L47.5802 -31.6838ZM71.0817 77.682V92.9516L71.0087 92.9996L71.0817 93.0476V139.75L47.6853 155.116V93.0464L71.0817 77.6808V77.682ZM47.329 124.482V155.351L23.9326 170.717V139.848L47.329 124.482ZM23.5763 170.717L0.251191 155.4L23.5745 140.083V170.718L23.5763 170.717ZM47.256 186.6L23.6814 202.082H0.17815V171.116H23.6796L47.2542 186.598L47.256 186.6ZM47.582 186.717H94.585L71.1886 202.082H24.1838L47.5802 186.717H47.582ZM142.7 155.682L165.845 170.883H142.7V155.682ZM213.96 171.282L237.105 186.483H213.96V171.282ZM214.211 171.117H284.863H308.721L332.117 186.483H237.609L214.212 171.117H214.211ZM285.471 186.717H332.474L355.87 202.082H308.867L285.471 186.717ZM355.87 202.316L332.547 217.634L309.223 202.316H355.87ZM380.127 170.882L380.054 170.834L379.981 170.882H332.621L309.225 155.516H403.735L427.132 170.882H380.129H380.127ZM356.374 155.282L332.978 139.917H379.981L403.377 155.282H356.374ZM379.981 139.683H332.621L309.225 124.317H403.377L379.981 139.683ZM309.225 124.083L332.621 108.717H379.981L403.377 124.083H309.223H309.225ZM380.485 108.717H427.132L403.808 124.035L380.485 108.717ZM380.129 108.483L356.732 93.1178H403.735L427.132 108.483H380.129ZM308.869 92.8838L285.472 77.5182H308.723L308.796 77.5661L308.869 77.5182H379.981L403.377 92.8838H308.869ZM332.475 -47.5162H237.965L261.36 -62.883H355.87L332.474 -47.5174L332.475 -47.5162ZM260.856 -62.883L213.958 -32.0828V-62.883H260.856ZM213.601 -31.8488L213.528 -31.8008L213.601 -31.7528V-16.3182H166.704L213.601 -47.1184V-31.8488ZM189.849 -62.718V-31.8488L166.452 -16.4831V-47.3513L189.849 -62.718ZM166.096 -47.1184V-16.4831L142.773 -31.8008L166.096 -47.1184ZM142.342 -62.883V-32.0828L95.4437 -62.883H142.342ZM94.9395 -62.883L118.336 -47.5174H23.8275L0.429341 -62.883H94.9377H94.9395ZM23.3234 -47.5174H0.17815V-62.718L23.3234 -47.5174ZM0.17815 -47.2834H23.6796L47.2542 -31.8008L23.6796 -16.3182H0.17815V-47.2834ZM71.0817 -15.918V-0.717392H47.9365L71.0817 -15.918ZM47.5802 -0.483395H71.0817V30.483H47.5802L47.5072 30.435L24.0057 15.0004L47.5802 -0.48222V-0.483395ZM71.0817 30.717V45.9176L47.9365 30.717H71.0817ZM47.5072 30.765L70.8305 46.0826H24.1838L47.5072 30.765ZM0.429341 61.6834L23.8257 46.3178H70.8287L47.4323 61.6834H0.429341ZM71.0817 46.4827V77.283H24.1838L71.0817 46.4827ZM47.329 77.517V92.9516L23.7545 108.434L0.17815 92.9516V77.517H47.329ZM0.17815 93.2827L23.5745 108.648V139.752L0.17815 155.117V93.2816V93.2827ZM23.3234 170.883H0.17815V155.682L23.3234 170.883ZM0.17815 202.317H23.3234L0.17815 217.518V202.317ZM23.8275 202.317H118.336L94.9395 217.683H0.429341L23.8257 202.317H23.8275ZM95.4437 217.683L142.342 186.883V217.683H95.4437ZM166.274 202.034L142.773 186.6L142.7 186.552V171.117H166.201L166.274 171.165L166.347 171.117H189.849V186.552L166.274 202.034ZM190.205 171.117H213.35L190.205 186.318V171.117ZM213.958 186.717H237.459L261.034 202.199L237.459 217.682H213.958V186.715V186.717ZM237.963 217.683L261.36 202.317H308.719L332.115 217.683H237.962H237.963ZM332.976 217.683L356.121 202.482V217.683H332.976ZM356.477 171.117H379.623L356.477 186.318V171.117ZM356.55 186.6L379.874 171.282V201.917L356.55 186.6ZM403.626 217.517L380.23 202.151V171.282L403.626 186.648V217.517ZM427.379 201.917L380.481 171.117H427.379V201.917ZM427.379 170.718L404.234 155.517H427.379V170.718ZM403.878 155.283L380.303 139.801L403.878 124.318H427.379V155.285H403.878V155.283ZM427.379 124.083H404.234L427.379 108.882V124.083ZM380.481 77.517H427.379V108.317L380.481 77.517ZM356.476 77.1169V61.9162H379.621L356.476 77.1169ZM379.977 61.6822H356.476V30.7158H379.977L380.05 30.7638L403.552 46.1984L379.977 61.681V61.6822ZM356.476 30.4818V15.2812L379.621 30.4818H356.476ZM380.05 30.4339L356.727 15.1162H403.374L380.05 30.4339ZM427.126 -0.483395L403.73 14.8822H356.727L380.123 -0.483395H427.126ZM356.474 14.7172V-16.083H403.372L356.474 14.7172Z" fill="#0069CA"/>
<path d="M854.047 -63V-16.482L830.699 -31.8476V-63H830.271L830.344 -62.952V-32.0828L806.996 -47.4484V-63H806.641V-47.4484L783.293 -32.0828V-63H640.714V-47.4484L617.366 -32.0828V-63H616.938L593.663 -47.6824V-63H593.307V-47.4484L569.959 -32.0828V-63H427.555V-16.083H498.238L474.89 -0.717392H427.555V-0.435425L427.628 -0.483395H474.533L451.185 14.8822H427.555V15.1162H451.185L474.533 30.4818H427.555V30.7158H474.533L451.185 46.0814H427.555V46.3154H450.83L427.555 61.6342V61.9162H474.533L451.185 77.2818H427.555V217.799H569.956V186.882L593.304 202.247V217.799H593.659V202.247L617.007 186.882V217.751L616.934 217.799H617.363V186.648L640.71 171.282V217.8H783.289V202.248L783.362 202.2L783.289 202.152V186.883L806.637 202.248V217.8H806.993V202.482L830.267 217.8H830.696V186.883L854.044 202.248V217.8H854.221V77.283H783.538L806.886 61.9174H854.22V61.6354L854.147 61.6834H807.241L830.589 46.3178H854.22V46.0838H830.589L807.241 30.7182H854.22V30.4842H807.241L830.589 15.1186H854.22V14.8846H830.945L854.22 -0.433086V-0.715061H807.241L830.589 -16.0807H854.22V-63H854.042H854.047ZM806.817 -47.2343L830.342 -31.7516V-16.317H783.289V-31.7516L806.815 -47.2343H806.817ZM830.698 -31.5176L853.795 -16.317H830.698V-31.5176ZM688.371 202.083L665.023 186.718H711.929L735.276 202.083H688.371ZM593.912 170.883L617.259 155.517H664.52L687.868 170.883H593.912ZM546 202.083H499.095L522.443 186.718H569.348L546 202.083ZM451.436 108.648L474.784 93.2827V124.152L451.436 139.518V108.648ZM498.236 77.517L475.139 92.7176V77.517H498.236ZM498.844 46.1516V15.0484L522.192 -0.317257V61.7524L498.844 77.118V46.2487L498.917 46.2008L498.844 46.1528V46.1516ZM569.35 -31.9166H522.444L499.097 -47.2822H546.002L569.35 -31.9166ZM664.668 -47.2822H711.573L688.225 -31.9166H641.32L664.668 -47.2822ZM783.04 93.1178L806.388 108.483H759.483L736.135 93.1178H783.04ZM759.159 108.6L735.634 124.083H712.181V93.1166H735.634L759.159 108.599V108.6ZM782.937 186.649V201.918L736.137 171.118H782.937V186.553L782.864 186.601L782.937 186.649ZM688.373 170.883L664.847 155.4L688.373 139.918H711.826V170.884H688.373V170.883ZM664.522 155.283H617.617L640.964 139.918H687.87L664.522 155.283ZM475.038 186.484L451.69 171.118H545.646L522.299 186.484H475.038ZM498.49 140.083V170.883H451.69L498.49 140.083ZM641.068 -31.5176L664.165 -16.317H641.068V-31.5176ZM735.632 -31.6826L758.98 -16.317H665.023L688.371 -31.6826H735.632ZM782.935 15.0484V46.1516L759.588 61.5172V-0.552429L782.935 -15.918V14.9512L782.863 14.9992L782.935 15.0472V15.0484ZM688.727 139.683L711.824 124.482V139.683H688.727ZM593.912 139.683L617.259 124.317H641.068H711.573L688.225 139.683H593.912ZM546.253 170.883V155.682L569.35 170.883H546.253ZM569.6 171.117V186.318L546.503 171.117H569.6ZM545.897 170.883H498.844V155.448L522.37 139.966L545.895 155.448V170.883H545.897ZM546.253 15.0484L569.6 -0.317257V30.483V61.5172L546.253 46.1516V15.0484ZM593.483 -16.035L593.556 -16.083H664.52L687.868 -0.717392H593.554L570.207 -16.083H593.409L593.481 -16.035H593.483ZM735.884 77.1169V46.2476L759.232 30.882V61.7512L735.884 77.1169ZM522.194 139.75L498.846 155.116V93.2804L522.194 108.646V139.749V139.75ZM521.943 77.5158L498.846 92.7165V77.5158H521.943ZM498.921 92.9984L522.195 77.6808V108.316L498.921 92.9984ZM569.959 77.2818V46.4816L593.307 61.8472V92.9505L569.959 108.316V77.2818ZM593.057 -0.718567H569.959V-15.9192L593.057 -0.718567ZM569.959 -0.484566H593.412L616.938 14.998L593.412 30.4806H569.959V-0.485733V-0.484566ZM735.531 46.1505L712.183 61.5161V15.0472L712.256 14.9992L712.183 14.9512V-0.318428L735.531 15.0472V46.1505ZM735.531 77.1169L712.256 61.7992L735.531 46.4816V77.1169ZM711.827 123.917L688.48 108.551V46.4816L711.754 61.7992L711.827 61.8472V77.2818V123.916V123.917ZM617.263 15.1162H664.524L687.872 30.4818H664.671L664.598 30.4339L664.526 30.4818H640.717H593.917L617.265 15.1162H617.263ZM688.124 77.1169L664.776 61.7512V30.882L688.124 46.2476V77.1169ZM617.368 46.2476L640.716 30.882V46.1505L640.643 46.1984L640.716 46.2464V77.3976V92.9493L617.368 108.315V46.2452V46.2476ZM640.465 30.7158L617.368 45.9165V30.7158H640.465ZM640.716 93.2816V124.082H593.915L640.716 93.2816ZM641.071 30.7158H664.168L641.071 45.9165V30.7158ZM664.419 30.8808V61.5161L641.144 46.1984L664.419 30.8808ZM665.027 30.7158H688.227L688.3 30.7638L688.373 30.7158H711.826V61.5161L665.025 30.7158H665.027ZM688.73 30.4818L711.827 15.2812V30.4818H688.73ZM688.3 30.4339L665.025 15.1162H711.575L688.3 30.4339ZM617.01 30.7158V46.1505L593.485 61.6331L569.959 46.1505V30.7158H617.012H617.01ZM593.663 61.8472L617.01 46.4816V77.3508L593.663 92.7165V61.8472ZM617.01 77.6808V108.55L593.663 123.916V93.0464L617.01 77.6808ZM593.307 123.916L570.032 108.598L593.307 93.2804V123.916ZM593.057 124.081H569.959V108.88L593.057 124.081ZM641.071 77.3976V46.4804L664.419 61.846V92.9493L641.071 108.315V77.3976ZM664.774 62.08L688.122 77.4456V108.315L664.774 92.9493V62.08ZM711.827 -16.0853V14.7149L665.027 -16.0853H711.827ZM711.577 14.881H664.671L641.324 -0.484566H688.229L711.577 14.881ZM640.82 -0.484566L664.168 14.881H617.263L593.915 -0.484566H640.82ZM641.071 108.647L664.597 93.1646L688.122 108.647V124.082H641.069V108.647H641.071ZM688.48 108.881L711.577 124.082H688.48V108.881ZM712.183 62.0812L735.28 77.2818H712.183V62.0812ZM759.236 30.5497L735.888 45.9153V15.046L759.236 -0.319603V30.5497ZM735.71 14.8331L712.185 -0.64954V-16.0842H759.237V-0.64954L735.712 14.8331H735.71ZM569.606 -0.883537L546.509 -16.0842H569.606V-0.883537ZM546.258 -15.918L569.533 -0.600395L546.258 14.7172V-15.918ZM522.555 139.75V108.881L545.902 124.247V155.116L522.555 139.75ZM545.902 123.917L522.555 108.551V77.682L545.902 93.0476V123.917ZM522.805 77.5158H569.606V108.316L522.805 77.5158ZM593.414 124.316L593.487 124.364L593.56 124.316H616.76L569.959 155.116V124.316H593.412H593.414ZM736.14 77.2818L782.941 46.4816V77.2818H736.14ZM759.593 -0.883537V-16.0842H782.69L759.593 -0.883537ZM664.6 -16.3661L641.325 -31.6838H687.875L664.6 -16.3661ZM546.51 -16.3182L569.607 -31.5188V-16.3182H546.51ZM546.082 -16.3661L522.807 -31.6838H569.357L546.082 -16.3661ZM545.653 -16.0842L498.853 14.7161V-16.0842H545.653ZM545.904 -15.9192V14.9501L522.556 30.3157V-0.5536L545.904 -15.9192ZM522.556 30.6468L545.904 15.2812V46.1505L522.556 61.5161V30.6468ZM546.082 46.3634L569.607 61.846V77.2806H522.555V61.846L546.08 46.3634H546.082ZM522.201 77.2806H499.104L522.201 62.08V77.2806ZM546.082 171.163L569.357 186.48H522.807L546.082 171.163ZM546.26 155.349V93.2804L569.535 108.598L569.607 108.646V124.315V155.349L569.535 155.397L569.607 155.445V170.715L546.26 155.349ZM570.215 155.28L593.563 139.914H640.468L617.121 155.28H570.215ZM616.765 155.514L593.49 170.832L570.215 155.514H616.765ZM712.188 170.879V140.079L758.989 170.879H712.188ZM712.439 139.913H759.344L782.692 155.279H735.787L712.439 139.913ZM712.439 139.679L735.714 124.361L758.989 139.679H712.439ZM712.188 139.514V124.313H735.285L712.188 139.514ZM712.188 92.8791V77.6785L735.285 92.8791H712.188ZM782.935 -47.5174H759.838L782.935 -62.718V-47.5174ZM782.935 -47.2834V-16.317H759.483L735.957 -31.7996L759.483 -47.2822H782.935V-47.2834ZM735.632 -31.9178H688.727L712.074 -47.2834H758.98L735.632 -31.9178ZM569.956 -16.3182V-31.5188L593.053 -16.3182H569.956ZM498.593 -47.2834L521.941 -31.9178H475.036L451.688 -47.2834H498.593ZM475.036 -31.6838H522.297L545.645 -16.3182H451.688L475.036 -31.6838ZM498.489 77.682V92.9516L498.416 92.9996L498.489 93.0476V139.75L475.141 155.116V93.0464L498.489 77.6808V77.682ZM474.785 124.482V155.351L451.438 170.717V139.848L474.785 124.482ZM451.082 170.717L427.805 155.4L451.08 140.083V170.718L451.082 170.717ZM474.712 186.6L451.187 202.082H427.732V171.116H451.185L474.711 186.598L474.712 186.6ZM475.038 186.717H521.943L498.595 202.082H451.688L475.036 186.717H475.038ZM569.958 155.682L593.055 170.883H569.958V155.682ZM641.069 171.282L664.166 186.483H641.069V171.282ZM641.32 171.117H711.826H735.634L758.981 186.483H664.67L641.322 171.117H641.32ZM712.432 186.717H759.337L782.685 202.082H735.779L712.432 186.717ZM782.685 202.316L759.41 217.634L736.135 202.316H782.685ZM806.891 170.882L806.818 170.834L806.745 170.882H759.485L736.137 155.516H830.45L853.798 170.882H806.893H806.891ZM783.188 155.282L759.84 139.917H806.745L830.093 155.282H783.188ZM806.745 139.683H759.485L736.137 124.317H830.093L806.745 139.683ZM736.137 124.083L759.485 108.717H806.745L830.093 124.083H736.135H736.137ZM807.249 108.717H853.798L830.523 124.035L807.249 108.717ZM806.893 108.483L783.545 93.1178H830.45L853.798 108.483H806.893ZM735.781 92.8838L712.434 77.5182H735.635L735.708 77.5661L735.781 77.5182H806.745L830.093 92.8838H735.781ZM759.339 -47.5162H665.025L688.371 -62.883H782.685L759.337 -47.5174L759.339 -47.5162ZM687.868 -62.883L641.068 -32.0828V-62.883H687.868ZM640.712 -31.8488L640.639 -31.8008L640.712 -31.7528V-16.3182H593.912L640.712 -47.1184V-31.8488ZM617.009 -62.718V-31.8488L593.661 -16.4831V-47.3513L617.009 -62.718ZM593.305 -47.1184V-16.4831L570.031 -31.8008L593.305 -47.1184ZM569.6 -62.883V-32.0828L522.8 -62.883H569.6ZM522.297 -62.883L545.645 -47.5174H451.333L427.983 -62.883H522.295H522.297ZM450.83 -47.5174H427.732V-62.718L450.83 -47.5174ZM427.732 -47.2834H451.185L474.711 -31.8008L451.185 -16.3182H427.732V-47.2834ZM498.489 -15.918V-0.717392H475.392L498.489 -15.918ZM475.036 -0.483395H498.489V30.483H475.036L474.963 30.435L451.51 15.0004L475.036 -0.48222V-0.483395ZM498.489 30.717V45.9176L475.392 30.717H498.489ZM474.963 30.765L498.238 46.0826H451.688L474.963 30.765ZM427.983 61.6834L451.331 46.3178H498.236L474.888 61.6834H427.983ZM498.489 46.4827V77.283H451.688L498.489 46.4827ZM474.785 77.517V92.9516L451.26 108.434L427.732 92.9516V77.517H474.785ZM427.732 93.2827L451.08 108.648V139.752L427.732 155.117V93.2816V93.2827ZM450.83 170.883H427.732V155.682L450.83 170.883ZM427.732 202.317H450.83L427.732 217.518V202.317ZM451.333 202.317H545.645L522.297 217.683H427.983L451.331 202.317H451.333ZM522.8 217.683L569.6 186.883V217.683H522.8ZM593.483 202.034L570.031 186.6L569.958 186.552V171.117H593.41L593.483 171.165L593.556 171.117H617.009V186.552L593.483 202.034ZM617.364 171.117H640.461L617.364 186.318V171.117ZM641.068 186.717H664.52L688.046 202.199L664.52 217.682H641.068V186.715V186.717ZM665.023 217.683L688.371 202.317H735.632L758.98 217.683H665.022H665.023ZM759.838 217.683L782.935 202.482V217.683H759.838ZM783.291 171.117H806.388L783.291 186.318V171.117ZM783.364 186.6L806.639 171.282V201.917L783.364 186.6ZM830.342 217.517L806.994 202.151V171.282L830.342 186.648V217.517ZM854.045 201.917L807.245 171.117H854.045V201.917ZM854.045 170.718L830.948 155.517H854.045V170.718ZM830.593 155.283L807.067 139.801L830.593 124.318H854.045V155.285H830.593V155.283ZM854.045 124.083H830.948L854.045 108.882V124.083ZM807.245 77.517H854.045V108.317L807.245 77.517ZM783.289 77.1169V61.9162H806.386L783.289 77.1169ZM806.742 61.6822H783.289V30.7158H806.742L806.815 30.7638L830.267 46.1984L806.742 61.681V61.6822ZM783.289 30.4818V15.2812L806.386 30.4818H783.289ZM806.815 30.4339L783.54 15.1162H830.09L806.815 30.4339ZM853.793 -0.483395L830.445 14.8822H783.54L806.888 -0.483395H853.793ZM783.287 14.7172V-16.083H830.088L783.287 14.7172Z" fill="#0069CA"/>
<path d="M1279.82 -47.2051V-0.880875L1256.53 -16.1825V-47.2051H1256.1L1256.17 -47.1573V-16.4167L1232.87 -31.7182V-47.2051H1232.52V-31.7182L1209.22 -16.4167V-47.2051H1066.94V-31.7182L1043.64 -16.4167V-47.2051H1043.21L1019.98 -31.9513V-47.2051H1019.63V-31.7182L996.329 -16.4167V-47.2051H854.221V-0.483566H924.757L901.458 14.818H854.221V15.0988L854.293 15.051H901.101L877.802 30.3526H854.221V30.5857H877.802L901.101 45.8872H854.221V46.1203H901.101L877.802 61.4219H854.221V61.6549H877.447L854.221 76.9099V77.1907H901.101L877.802 92.4922H854.221V232.424H996.325V201.635L1019.62 216.937V232.424H1019.98V216.937L1043.28 201.635V232.376L1043.21 232.424H1043.63V201.402L1066.93 186.101V232.425H1209.21V216.938L1209.29 216.89L1209.21 216.843V201.636L1232.51 216.938V232.425H1232.87V217.171L1256.09 232.425H1256.52V201.636L1279.82 216.938V232.425H1280V92.4934H1209.46L1232.76 77.1918H1280V76.911L1279.92 76.9588H1233.12L1256.42 61.6572H1280V61.4242H1256.42L1233.12 46.1226H1280V45.8896H1233.12L1256.42 30.588H1280V30.355H1256.77L1280 15.1011V14.8203H1233.12L1256.42 -0.481239H1280V-47.2051H1279.82H1279.82ZM1232.69 -31.505L1256.17 -16.0869V-0.716595H1209.21V-16.0869L1232.69 -31.505H1232.69ZM1256.52 -15.8539L1279.57 -0.716595H1256.52V-15.8539ZM1114.49 216.774L1091.19 201.472H1138L1161.3 216.774H1114.49ZM1020.23 185.703L1043.53 170.402H1090.69L1113.99 185.703H1020.23ZM972.419 216.774H925.612L948.911 201.472H995.718L972.419 216.774ZM878.052 123.728L901.351 108.426V139.167L878.052 154.469V123.728ZM924.755 92.7264L901.706 107.864V92.7264H924.755ZM925.362 61.4918V30.5181L948.661 15.2165V77.0275L925.362 92.3291V61.5885L925.434 61.5407L925.362 61.4929V61.4918ZM995.72 -16.2512H948.913L925.614 -31.5528H972.421L995.72 -16.2512ZM1090.84 -31.5528H1137.65L1114.35 -16.2512H1067.54L1090.84 -31.5528ZM1208.97 108.262L1232.26 123.564H1185.46L1162.16 108.262H1208.97ZM1185.13 123.68L1161.66 139.098H1138.25V108.261H1161.66L1185.13 123.679V123.68ZM1208.86 201.403V216.609L1162.16 185.938H1208.86V201.308L1208.79 201.356L1208.86 201.403ZM1114.5 185.703L1091.02 170.285L1114.5 154.867H1137.9V185.705H1114.5V185.703ZM1090.69 170.169H1043.89L1067.19 154.867H1113.99L1090.69 170.169ZM901.605 201.239L878.306 185.938H972.066L948.767 201.239H901.605ZM925.009 155.031V185.703H878.306L925.009 155.031ZM1067.29 -15.8539L1090.34 -0.716595H1067.29V-15.8539ZM1161.66 -16.0182L1184.96 -0.716595H1091.19L1114.49 -16.0182H1161.66ZM1208.86 30.5181V61.4918L1185.56 76.7933V14.9823L1208.86 -0.319286V30.4214L1208.79 30.4691L1208.86 30.5169V30.5181ZM1114.85 154.633L1137.9 139.496V154.633H1114.85ZM1020.23 154.633L1043.53 139.331H1067.29H1137.65L1114.35 154.633H1020.23ZM972.671 185.703V170.566L995.72 185.703H972.671ZM995.97 185.936V201.074L972.921 185.936H995.97ZM972.316 185.703H925.362V170.333L948.838 154.915L972.315 170.333V185.703H972.316ZM972.671 30.5181L995.97 15.2165V45.8884V76.7933L972.671 61.4918V30.5181ZM1019.8 -0.435799L1019.88 -0.483566H1090.69L1113.99 14.818H1019.87L996.575 -0.483566H1019.73L1019.8 -0.435799H1019.8ZM1161.91 92.328V61.5873L1185.21 46.2857V77.0264L1161.91 92.328ZM948.663 154.701L925.363 170.002V108.424L948.663 123.726V154.699V154.701ZM948.412 92.7253L925.363 107.863V92.7253H948.412ZM925.438 108.143L948.664 92.8896V123.397L925.438 108.143ZM996.329 92.4922V61.8203L1019.63 77.1219V108.096L996.329 123.397V92.4922ZM1019.38 14.8169H996.329V-0.32045L1019.38 14.8169ZM996.329 15.0499H1019.73L1043.21 30.468L1019.73 45.8861H996.329V15.0487V15.0499ZM1161.55 61.4906L1138.26 76.7922V30.5169L1138.33 30.4691L1138.26 30.4214V15.2153L1161.55 30.5169V61.4906ZM1161.55 92.328L1138.33 77.0741L1161.55 61.8203V92.328ZM1137.9 138.933L1114.6 123.631V61.8203L1137.83 77.0741L1137.9 77.1219V92.4922V138.932V138.933ZM1043.53 30.5857H1090.7L1114 45.8872H1090.84L1090.77 45.8395L1090.7 45.8872H1066.94H1020.24L1043.54 30.5857H1043.53ZM1114.25 92.328L1090.95 77.0264V46.2857L1114.25 61.5873V92.328ZM1043.64 61.5873L1066.94 46.2857V61.4906L1066.86 61.5384L1066.94 61.5861V92.6076V108.094L1043.64 123.396V61.585V61.5873ZM1066.69 46.1203L1043.64 61.2576V46.1203H1066.69ZM1066.94 108.425V139.097H1020.23L1066.94 108.425ZM1067.29 46.1203H1090.34L1067.29 61.2576V46.1203ZM1090.59 46.2846V76.7922L1067.37 61.5384L1090.59 46.2846ZM1091.2 46.1203H1114.35L1114.42 46.168L1114.5 46.1203H1137.9V76.7922L1091.2 46.1203H1091.2ZM1114.85 45.8872L1137.9 30.7499V45.8872H1114.85ZM1114.42 45.8395L1091.2 30.5857H1137.65L1114.42 45.8395ZM1043.28 46.1203V61.4906L1019.81 76.9087L996.329 61.4906V46.1203H1043.28H1043.28ZM1019.98 77.1219L1043.28 61.8203V92.561L1019.98 107.863V77.1219ZM1043.28 92.8896V123.63L1019.98 138.932V108.191L1043.28 92.8896ZM1019.63 138.932L996.402 123.678L1019.63 108.424V138.932ZM1019.38 139.096H996.329V123.959L1019.38 139.096ZM1067.29 92.6076V61.8192L1090.59 77.1208V108.094L1067.29 123.396V92.6076ZM1090.95 77.3538L1114.25 92.6553V123.396L1090.95 108.094V77.3538ZM1137.9 -0.485897V30.186L1091.2 -0.485897H1137.9ZM1137.65 30.3515H1090.84L1067.54 15.0499H1114.35L1137.65 30.3515ZM1067.04 15.0499L1090.34 30.3515H1043.53L1020.23 15.0499H1067.04ZM1067.29 123.727L1090.77 108.309L1114.25 123.727V139.097H1067.29V123.727H1067.29ZM1114.6 123.96L1137.65 139.097H1114.6V123.96ZM1138.26 77.3549L1161.3 92.4922H1138.26V77.3549ZM1185.21 45.9548L1161.91 61.2564V30.5157L1185.21 15.2142V45.9548ZM1161.73 30.3037L1138.26 14.8856V-0.484734H1185.21V14.8856L1161.74 30.3037H1161.73ZM995.976 14.6526L972.927 -0.484734H995.976V14.6526ZM972.677 -0.319286L995.903 14.9345L972.677 30.1883V-0.319286ZM949.023 154.701V123.96L972.322 139.262V170.002L949.023 154.701ZM972.322 138.933L949.023 123.631V92.8907L972.322 108.192V138.933ZM949.273 92.7253H995.976V123.397L949.273 92.7253ZM1019.73 139.33L1019.81 139.378L1019.88 139.33H1043.03L996.329 170.002V139.33H1019.73H1019.73ZM1162.16 92.4922L1208.87 61.8203V92.4922H1162.16ZM1185.57 14.6526V-0.484734H1208.62L1185.57 14.6526ZM1090.77 -0.76553L1067.55 -16.0193H1114L1090.77 -0.76553ZM972.929 -0.717758L995.977 -15.8551V-0.717758H972.929ZM972.501 -0.76553L949.275 -16.0193H995.727L972.501 -0.76553ZM972.073 -0.484734L925.371 30.1872V-0.484734H972.073ZM972.324 -0.32045V30.4202L949.024 45.7218V14.9811L972.324 -0.32045ZM949.024 46.0515L972.324 30.7499V61.4906L949.024 76.7922V46.0515ZM972.501 61.7026L995.977 77.1208V92.4911H949.023V77.1208L972.499 61.7026H972.501ZM948.67 92.4911H925.621L948.67 77.3538V92.4911ZM972.501 185.982L995.727 201.236H949.275L972.501 185.982ZM972.678 170.234V108.424L995.905 123.678L995.977 123.726V139.329V170.234L995.905 170.282L995.977 170.33V185.536L972.678 170.234ZM996.584 170.165L1019.88 154.864H1066.69L1043.39 170.165H996.584ZM1043.04 170.398L1019.81 185.652L996.584 170.398H1043.04ZM1138.26 185.7V155.028L1184.96 185.7H1138.26ZM1138.51 154.863H1185.32L1208.62 170.164H1161.81L1138.51 154.863ZM1138.51 154.63L1161.74 139.376L1184.96 154.63H1138.51ZM1138.26 154.465V139.328H1161.31L1138.26 154.465ZM1138.26 108.025V92.8872L1161.31 108.025H1138.26ZM1208.86 -31.787H1185.81L1208.86 -46.9243V-31.787ZM1208.86 -31.554V-0.716595H1185.46L1161.98 -16.1347L1185.46 -31.5528H1208.86V-31.554ZM1161.66 -16.2524H1114.85L1138.15 -31.554H1184.96L1161.66 -16.2524ZM996.325 -0.717758V-15.8551L1019.37 -0.717758H996.325ZM925.112 -31.554L948.411 -16.2524H901.603L878.304 -31.554H925.112ZM901.603 -16.0193H948.765L972.065 -0.717758H878.304L901.603 -16.0193ZM925.007 92.8907V108.097L924.934 108.145L925.007 108.192V154.701L901.708 170.002V108.191L925.007 92.8896V92.8907ZM901.353 139.496V170.236L878.054 185.538V154.797L901.353 139.496ZM877.699 185.538L854.471 170.285L877.697 155.031V185.539L877.699 185.538ZM901.28 201.355L877.804 216.773H854.398V185.935H877.802L901.278 201.353L901.28 201.355ZM901.605 201.471H948.412L925.113 216.773H878.304L901.603 201.471H901.605ZM996.327 170.566L1019.38 185.703H996.327V170.566ZM1067.29 186.101L1090.34 201.238H1067.29V186.101ZM1067.54 185.936H1137.9H1161.66L1184.96 201.238H1090.84L1067.54 185.936H1067.54ZM1138.5 201.471H1185.31L1208.61 216.773H1161.8L1138.5 201.471ZM1208.61 217.006L1185.38 232.259L1162.16 217.006H1208.61ZM1232.77 185.702L1232.69 185.654L1232.62 185.702H1185.46L1162.16 170.401H1256.28L1279.58 185.702H1232.77H1232.77ZM1209.11 170.168L1185.81 154.866H1232.62L1255.92 170.168H1209.11ZM1232.62 154.633H1185.46L1162.16 139.331H1255.92L1232.62 154.633ZM1162.16 139.098L1185.46 123.797H1232.62L1255.92 139.098H1162.16H1162.16ZM1233.12 123.797H1279.58L1256.35 139.051L1233.12 123.797ZM1232.77 123.564L1209.47 108.262H1256.28L1279.58 123.564H1232.77ZM1161.81 108.029L1138.51 92.7276H1161.66L1161.73 92.7754L1161.81 92.7276H1232.62L1255.92 108.029H1161.81ZM1185.31 -31.7858H1091.2L1114.49 -47.0886H1208.61L1185.31 -31.787L1185.31 -31.7858ZM1113.99 -47.0886L1067.29 -16.4167V-47.0886H1113.99ZM1066.93 -16.1836L1066.86 -16.1359L1066.93 -16.0881V-0.717758H1020.23L1066.93 -31.3897V-16.1836ZM1043.28 -46.9243V-16.1836L1019.98 -0.882042V-31.6215L1043.28 -46.9243ZM1019.63 -31.3897V-0.882042L996.4 -16.1359L1019.63 -31.3897ZM995.97 -47.0886V-16.4167L949.268 -47.0886H995.97ZM948.765 -47.0886L972.065 -31.787H877.949L854.648 -47.0886H948.764H948.765ZM877.447 -31.787H854.398V-46.9243L877.447 -31.787ZM854.398 -31.554H877.802L901.278 -16.1359L877.802 -0.717758H854.398V-31.554ZM925.007 -0.319286V14.818H901.958L925.007 -0.319286ZM901.603 15.051H925.007V45.8884H901.603L901.53 45.8406L878.127 30.4703L901.603 15.0522V15.051ZM925.007 46.1214V61.2587L901.958 46.1214H925.007ZM901.53 46.1692L924.757 61.423H878.304L901.53 46.1692ZM854.648 76.9588L877.947 61.6572H924.755L901.456 76.9588H854.648ZM925.007 61.8215V92.4934H878.304L925.007 61.8215ZM901.353 92.7264V108.097L877.876 123.515L854.398 108.097V92.7264H901.353ZM854.398 108.426L877.697 123.728V154.702L854.398 170.003V108.425V108.426ZM877.447 185.703H854.398V170.566L877.447 185.703ZM854.398 217.007H877.447L854.398 232.144V217.007ZM877.949 217.007H972.065L948.765 232.308H854.648L877.947 217.007H877.949ZM949.268 232.308L995.97 201.636V232.308H949.268ZM1019.8 216.725L996.4 201.355L996.327 201.307V185.936H1019.73L1019.8 185.984L1019.88 185.936H1043.28V201.307L1019.8 216.725ZM1043.63 185.936H1066.68L1043.63 201.074V185.936ZM1067.29 201.471H1090.69L1114.17 216.889L1090.69 232.307H1067.29V201.47V201.471ZM1091.19 232.308L1114.49 217.007H1161.66L1184.96 232.308H1091.19H1091.19ZM1185.81 232.308L1208.86 217.171V232.308H1185.81ZM1209.22 185.936H1232.26L1209.22 201.074V185.936ZM1209.29 201.355L1232.52 186.101V216.608L1209.29 201.355ZM1256.17 232.143L1232.87 216.841V186.101L1256.17 201.402V232.143ZM1279.82 216.608L1233.12 185.936H1279.82V216.608ZM1279.82 185.539L1256.77 170.402H1279.82V185.539ZM1256.42 170.169L1232.94 154.751L1256.42 139.333H1279.82V170.17H1256.42V170.169ZM1279.82 139.098H1256.77L1279.82 123.961V139.098ZM1233.12 92.7264H1279.82V123.398L1233.12 92.7264ZM1209.21 92.328V77.1907H1232.26L1209.21 92.328ZM1232.62 76.9576H1209.21V46.1203H1232.62L1232.69 46.168L1256.09 61.5384L1232.62 76.9565V76.9576ZM1209.21 45.8872V30.7499L1232.26 45.8872H1209.21ZM1232.69 45.8395L1209.46 30.5857H1255.92L1232.69 45.8395ZM1279.57 15.051L1256.27 30.3526H1209.46L1232.76 15.051H1279.57ZM1209.21 30.1883V-0.483566H1255.92L1209.21 30.1883Z" fill="#0069CA"/>
</g>
<defs>
<linearGradient id="paint0_linear_2009_19835" x1="732" y1="207.709" x2="732" y2="0" gradientUnits="userSpaceOnUse">
<stop stop-color="#0069CA" stop-opacity="0.27"/>
<stop offset="1" stop-color="#4D97DC" stop-opacity="0"/>
</linearGradient>
</defs>
</svg>
