<svg width="18" height="19" viewBox="0 0 18 19" fill="none" xmlns="http://www.w3.org/2000/svg">
<path d="M16.5914 14.1464C17.4493 12.7487 17.9024 11.1402 17.9001 9.50013V9.49982C17.9024 7.85975 17.4493 6.25125 16.5913 4.85348L16.5865 4.84585C15.7905 3.54853 14.6751 2.477 13.347 1.73365C12.0188 0.990306 10.5222 0.599982 9.00013 0.599976C7.47809 0.599969 5.98147 0.990281 4.65329 1.73362C3.32511 2.47695 2.20975 3.54847 1.41377 4.84579L1.40883 4.85352C0.552997 6.25224 0.100104 7.86017 0.100098 9.49995C0.100091 11.1397 0.552971 12.7477 1.40879 14.1464L1.41382 14.1542C2.2098 15.4515 3.32516 16.523 4.65333 17.2663C5.9815 18.0097 7.4781 18.4 9.00013 18.4C10.5222 18.4 12.0188 18.0096 13.3469 17.2663C14.6751 16.523 15.7904 15.4515 16.5864 14.1541L16.5914 14.1464ZM10.1377 16.8746C9.96812 17.0383 9.77292 17.1731 9.55984 17.2737C9.38494 17.3568 9.19373 17.4 9.00009 17.4C8.80645 17.4 8.61524 17.3568 8.44034 17.2737C8.03484 17.0666 7.68773 16.7612 7.43073 16.3853C6.90586 15.6268 6.51689 14.7829 6.2812 13.8912C7.18658 13.8354 8.09288 13.8071 9.0001 13.806C9.90693 13.806 10.8133 13.8344 11.7191 13.8912C11.5887 14.3497 11.4257 14.7983 11.2315 15.2336C10.9758 15.8458 10.6044 16.403 10.1377 16.8746ZM1.1175 9.99998H4.7073C4.73067 11.0017 4.83925 11.9995 5.03185 12.9828C4.05054 13.0692 3.07173 13.1878 2.09543 13.3386C1.52373 12.3129 1.18954 11.172 1.1175 9.99998ZM2.09543 5.66133C3.07134 5.81256 4.05049 5.93119 5.03287 6.01721C4.83989 7.00042 4.73108 7.99828 4.70762 8.99998H1.1175C1.18953 7.82794 1.52373 6.68701 2.09543 5.66133ZM7.86246 2.12531C8.03205 1.96166 8.22725 1.82684 8.44034 1.72618C8.61524 1.64308 8.80645 1.59996 9.00009 1.59996C9.19373 1.59996 9.38494 1.64308 9.55984 1.72618C9.96534 1.93331 10.3125 2.23877 10.5695 2.61465C11.0943 3.3731 11.4833 4.21705 11.719 5.10878C10.8136 5.16449 9.9073 5.19287 9.0001 5.19392C8.09326 5.19391 7.18691 5.16552 6.28104 5.10877C6.4115 4.65028 6.57445 4.20167 6.76865 3.76633C7.02437 3.15409 7.39575 2.59691 7.86246 2.12531ZM16.8827 8.99998H13.2929C13.2695 7.99829 13.1609 7.0004 12.9684 6.01713C13.9497 5.93077 14.9285 5.81217 15.9048 5.66132C16.4765 6.68701 16.8107 7.82793 16.8827 8.99998ZM6.03761 12.9051C5.84205 11.9483 5.7316 10.9762 5.70756 9.99998H12.2927C12.2689 10.9762 12.1587 11.9484 11.9633 12.9051C10.9766 12.8404 9.98891 12.8073 9.0001 12.806C8.012 12.806 7.02451 12.839 6.03761 12.9051ZM11.9626 6.09487C12.1581 7.05159 12.2686 8.02376 12.2926 8.99998H5.70745C5.73127 8.02376 5.84152 7.05158 6.0369 6.09482C7.02354 6.15956 8.01128 6.19258 9.0001 6.19391C9.9882 6.19391 10.9757 6.16089 11.9626 6.09487ZM13.2926 9.99998H16.8827C16.8107 11.172 16.4765 12.3129 15.9048 13.3386C14.9288 13.1874 13.9497 13.0687 12.9673 12.9827C13.1603 11.9995 13.2691 11.0017 13.2926 9.99998ZM15.3052 4.74093C14.4519 4.86404 13.5961 4.9615 12.7377 5.03333C12.5834 4.45895 12.3845 3.89751 12.1426 3.35417C11.9218 2.85416 11.644 2.38134 11.3147 1.94511C12.9062 2.43322 14.3029 3.41173 15.3052 4.74093ZM3.41393 3.91381C4.32691 2.99996 5.45013 2.32401 6.68511 1.94523C6.66637 1.9695 6.6471 1.99269 6.62863 2.01746C5.99385 2.93125 5.53147 3.9534 5.2643 5.03348C4.40588 4.96078 3.54945 4.86326 2.69501 4.74093C2.91538 4.44904 3.15558 4.17268 3.41393 3.91381ZM2.69501 14.259C3.54827 14.1359 4.40408 14.0384 5.26246 13.9666C5.41674 14.541 5.61571 15.1024 5.85756 15.6458C6.07836 16.1458 6.35619 16.6186 6.68552 17.0548C5.09395 16.5667 3.6973 15.5882 2.69501 14.259ZM14.5863 15.0861C13.6733 16 12.5501 16.6759 11.3151 17.0547C11.3338 17.0304 11.3531 17.0072 11.3716 16.9825C12.0063 16.0687 12.4687 15.0465 12.7359 13.9665C13.5943 14.0392 14.4507 14.1367 15.3052 14.259C15.0848 14.5509 14.8446 14.8273 14.5863 15.0861Z" fill="black"/>
</svg>
