<svg width="20" height="20" viewBox="0 0 20 20" fill="none" xmlns="http://www.w3.org/2000/svg">
<g clip-path="url(#clip0_2256_10443)">
<path d="M7.5 9.16602C7.5 9.82906 7.76339 10.4649 8.23223 10.9338C8.70107 11.4026 9.33696 11.666 10 11.666C10.663 11.666 11.2989 11.4026 11.7678 10.9338C12.2366 10.4649 12.5 9.82906 12.5 9.16602C12.5 8.50297 12.2366 7.86709 11.7678 7.39825C11.2989 6.92941 10.663 6.66602 10 6.66602C9.33696 6.66602 8.70107 6.92941 8.23223 7.39825C7.76339 7.86709 7.5 8.50297 7.5 9.16602Z" stroke="#00112A" stroke-width="1.25" stroke-linecap="round" stroke-linejoin="round"/>
<path d="M14.7168 13.8806L11.1809 17.4164C10.8684 17.7286 10.4448 17.904 10.003 17.904C9.56129 17.904 9.13762 17.7286 8.82511 17.4164L5.28844 13.8806C4.35612 12.9482 3.72122 11.7603 3.46401 10.4671C3.20681 9.17395 3.33885 7.83352 3.84344 6.61536C4.34804 5.39721 5.20252 4.35604 6.29884 3.62351C7.39516 2.89098 8.68408 2.5 10.0026 2.5C11.3211 2.5 12.6101 2.89098 13.7064 3.62351C14.8027 4.35604 15.6572 5.39721 16.1618 6.61536C16.6664 7.83352 16.7984 9.17395 16.5412 10.4671C16.284 11.7603 15.6491 12.9482 14.7168 13.8806Z" stroke="#00112A" stroke-width="1.25" stroke-linecap="round" stroke-linejoin="round"/>
</g>
<defs>
<clipPath id="clip0_2256_10443">
<rect width="20" height="20" fill="white"/>
</clipPath>
</defs>
</svg>
