<svg width="462" height="389" viewBox="0 0 462 389" fill="none" xmlns="http://www.w3.org/2000/svg">
<mask id="mask0_1301_2240" style="mask-type:luminance" maskUnits="userSpaceOnUse" x="0" y="0" width="462" height="389">
<rect width="461.489" height="389" fill="white"/>
</mask>
<g mask="url(#mask0_1301_2240)">
<circle cx="235.529" cy="194.5" r="194.5" fill="#E9F2FA"/>
<rect x="224.207" y="109.705" width="119.266" height="184.687" fill="white"/>
<path d="M200.303 222.43H322.589" stroke="black"/>
<path d="M200.303 234.507H322.589" stroke="black"/>
<path d="M200.303 246.585H322.589" stroke="black"/>
<path d="M200.303 258.662H322.589" stroke="black"/>
<ellipse cx="283.84" cy="163.551" rx="31.2009" ry="31.2009" fill="#D2DEE9"/>
<rect opacity="0.7" x="322.589" y="175.378" width="49.3165" height="45.7946" fill="#98B9F2"/>
<path d="M335.379 197.934L341.658 195.474V196.441L336.523 198.38L341.658 200.324V201.291L335.379 198.826V197.934ZM347.217 193.299H348.034L345.531 201.189H344.714L347.217 193.299ZM357.267 198.836L350.988 201.291V200.324L356.117 198.38L350.988 196.441V195.474L357.267 197.934V198.836Z" fill="white"/>
<rect x="18.1319" y="18.8715" width="266.211" height="175.126" stroke="black"/>
<path d="M18.1319 28.1817H284.343" stroke="black"/>
<rect x="37.5062" y="43.781" width="80.0146" height="80.0146" stroke="black"/>
<path d="M132.869 50.8272H255.156" stroke="black"/>
<path d="M132.869 62.9047H255.156" stroke="black"/>
<path d="M132.869 74.9821H255.156" stroke="black"/>
<path d="M132.869 87.0596H255.156" stroke="black"/>
<path opacity="0.44" fill-rule="evenodd" clip-rule="evenodd" d="M77.5135 64.9171L55.7233 102.656H99.3038L77.5135 64.9171Z" fill="#0069CA"/>
<ellipse cx="23.9193" cy="23.652" rx="2.26432" ry="2.26432" fill="#AB8DE5"/>
<circle cx="31.719" cy="23.652" r="2.26432" fill="#73E5E2"/>
<circle cx="39.5186" cy="23.652" r="2.26432" fill="#50B89D"/>
<path fill-rule="evenodd" clip-rule="evenodd" d="M135.384 161.664L142.933 154.997H135.234L135.384 161.664Z" fill="#0069CA"/>
<path fill-rule="evenodd" clip-rule="evenodd" d="M127.837 142.918C127.837 139.375 129.09 136.35 131.595 133.844C134.101 131.339 137.125 130.086 140.669 130.086H173.379C176.923 130.086 179.947 131.339 182.453 133.844C184.959 136.35 186.212 139.375 186.212 142.918C186.212 146.462 184.959 149.486 182.453 151.992C179.947 154.498 176.923 155.75 173.379 155.75H140.669C137.125 155.75 134.101 154.498 131.595 151.992C129.09 149.486 127.837 146.462 127.837 142.918Z" fill="#0069CA"/>
<circle cx="149.225" cy="142.918" r="2.26432" fill="white"/>
<ellipse cx="157.024" cy="142.918" rx="2.26431" ry="2.26432" fill="white"/>
<ellipse cx="164.824" cy="142.918" rx="2.26431" ry="2.26432" fill="white"/>
<path fill-rule="evenodd" clip-rule="evenodd" d="M374.422 86.1781L366.873 79.5106H374.572L374.422 86.1781Z" fill="#98B9F2"/>
<path fill-rule="evenodd" clip-rule="evenodd" d="M381.97 67.4333C381.97 70.9768 380.717 74.0014 378.212 76.507C375.706 79.0127 372.682 80.2655 369.138 80.2655H336.428C332.884 80.2655 329.86 79.0127 327.354 76.507C324.848 74.0014 323.595 70.9768 323.595 67.4333C323.595 63.8898 324.848 60.8652 327.354 58.3595C329.86 55.8539 332.884 54.6011 336.428 54.6011L369.138 54.6011C372.682 54.6011 375.706 55.8539 378.212 58.3595C380.717 60.8652 381.97 63.8898 381.97 67.4333Z" fill="#98B9F2"/>
<ellipse cx="360.583" cy="67.4333" rx="2.26432" ry="2.26432" fill="white"/>
<ellipse cx="352.782" cy="67.4333" rx="2.26432" ry="2.26432" fill="white"/>
<ellipse cx="344.982" cy="67.4333" rx="2.26432" ry="2.26432" fill="white"/>
<ellipse cx="370.396" cy="21.3877" rx="2.26432" ry="2.26432" fill="#73ADE2"/>
<ellipse cx="375.176" cy="30.6971" rx="2.26432" ry="2.26432" fill="#73ADE2"/>
<ellipse cx="323.091" cy="122.538" rx="3.52299" ry="3.523" fill="#73ADE2"/>
<ellipse cx="343.725" cy="134.616" rx="3.52299" ry="3.523" fill="#73ADE2"/>
<ellipse cx="26.6875" cy="138.642" rx="3.523" ry="3.523" fill="#0069CA"/>
<path fill-rule="evenodd" clip-rule="evenodd" d="M331.244 299.551V299.048L330.036 297.538L327.243 294.146L324.274 290.553C324.274 290.553 321.415 288.576 320.681 288.233C318.06 286.878 315.167 286.132 312.217 286.052C310.28 286.052 303.038 286.344 303.024 287.562C303.024 289.368 313.167 296.208 320.601 299.529C323.866 299.551 331.244 299.551 331.244 299.551Z" fill="#1F161E"/>
<path fill-rule="evenodd" clip-rule="evenodd" d="M329.709 299.551C319.387 291.609 298.317 248.296 303.722 232.243C315.225 238.105 327.847 258.321 333.8 275.39C334.121 276.502 334.378 277.631 334.57 278.772L336.986 289.842L337.57 299.57L329.709 299.551Z" fill="#6F9CEB"/>
<path fill-rule="evenodd" clip-rule="evenodd" d="M336.755 299.551C333.272 296.723 332.161 288.349 332.13 285.224C332.075 279.392 332.97 275.094 337.958 268.678C342.946 262.263 341.616 251.618 348.239 244.437C354.862 237.256 359.25 235.253 367.108 235.253C374.967 235.253 377.47 247.995 377.424 251.201C377.334 264.133 369.186 265.966 364.215 272.135C360.607 276.613 360.325 280.277 359.232 282.371C353.375 293.653 348.614 297.896 345.091 299.552" fill="#0069CA"/>
<path d="M338.677 298.614C338.777 276.557 362.018 243.424 366.988 238.462" stroke="white" stroke-width="0.4" stroke-linecap="round" stroke-linejoin="round"/>
<path d="M339.929 288.59C337.357 285.787 335.021 277.841 335.37 275.778" stroke="white" stroke-width="0.4" stroke-linecap="round" stroke-linejoin="round"/>
<path d="M333.343 297.647C329.699 291.19 312.412 259.708 305.966 236.52" stroke="white" stroke-width="0.4" stroke-linecap="round" stroke-linejoin="round"/>
<path fill-rule="evenodd" clip-rule="evenodd" d="M345.113 299.55H355.943L346.89 333.267H322.664L313.752 299.55H345.113" fill="#B37361"/>
<path d="M306.565 288.242C311.844 288.604 318.487 288.847 323.172 292.041" stroke="white" stroke-width="0.4" stroke-linecap="round" stroke-linejoin="round"/>
<path fill-rule="evenodd" clip-rule="evenodd" d="M390.247 161.539C388.974 167.613 379.725 242.957 382.748 260.953C385.771 278.948 435.085 316.655 437.243 317.315C439.759 315.469 443.46 309.414 443.46 309.414C443.46 309.414 407.303 267.5 406.614 265.819C405.925 264.139 414.535 167.075 414.535 167.075L390.247 161.539Z" fill="#013E76"/>
<path fill-rule="evenodd" clip-rule="evenodd" d="M449.132 175.251L412.24 325.724H399.815L412.407 168.75L449.132 175.251Z" fill="#1B84E5"/>
<path fill-rule="evenodd" clip-rule="evenodd" d="M422.932 89.098C428.025 89.098 454.591 89.9586 459.391 99.3082C464.191 108.658 459.668 151.88 456.684 153.551C455.074 154.452 454.636 153.576 454.168 155.406C453.7 157.235 449.135 175.248 449.135 175.248C446.236 175.329 403.98 168.962 390.257 161.52C390.337 159.448 391.001 154.073 391.001 153.659C389.18 154.404 386.976 154.56 386.371 153.659C381.017 145.552 388.998 103.286 394.725 94.7806C397.159 91.1366 414.752 89.1231 422.932 89.098Z" fill="#6F9CEB"/>
<path fill-rule="evenodd" clip-rule="evenodd" d="M440.422 154.719C441.669 154.719 452.414 162.268 451.492 165.977C452.247 162.998 454.623 153.793 454.623 153.793C453.602 153.99 441.338 154.735 440.422 154.719Z" fill="#1F161E"/>
<path fill-rule="evenodd" clip-rule="evenodd" d="M429.506 94.0301C429.506 95.6661 416.568 95.6661 416.568 94.0301V77.4229H429.506V94.0301Z" fill="#F8CDBA"/>
<path fill-rule="evenodd" clip-rule="evenodd" d="M422.083 81.3527C423.09 81.3527 429.506 84.1886 429.506 85.7712V77.4229C427.906 77.4229 422.083 81.3527 422.083 81.3527Z" fill="#1F161E"/>
<circle cx="420.312" cy="69.98" r="12.5857" fill="#F8CDBA"/>
<path fill-rule="evenodd" clip-rule="evenodd" d="M416.055 51.5819C409.594 51.5819 405.568 55.6383 405.568 60.8366C405.568 65.1591 406.615 67.6055 407.847 68.224C408.627 64.0269 410.323 62.0844 411.727 61.2489C412.818 62.0844 414.686 64.1076 417.181 64.7315C419.675 65.3554 426.174 65.2343 431.422 69.0497C433.138 67.4899 434.849 65.4612 434.849 63.0715C434.849 60.6817 433.792 57.6823 427.577 55.9502C423.473 54.8071 422.899 51.5819 416.055 51.5819Z" fill="#1F161E"/>
<ellipse cx="408.552" cy="72.5714" rx="2.20433" ry="1.14743" fill="#FA9E9F"/>
<ellipse cx="422.416" cy="72.5714" rx="2.20433" ry="1.14743" fill="#FA9E9F"/>
<path d="M413.937 70.1917C413.525 70.7806 411.421 73.2511 413.64 74.248" stroke="#1F161E" stroke-linecap="round"/>
<path d="M418.083 77.1307C418.994 76.9065 419.788 76.3479 420.307 75.5656" stroke="#1F161E" stroke-linecap="round"/>
<circle cx="431.947" cy="71.4296" r="2.90893" fill="#F8CDBA"/>
<path d="M440.713 113.863C440.486 116.641 439.6 130.368 439.933 132.176C435.711 133.645 397.053 151.978 390.364 153.99" stroke="#1F161E" stroke-linecap="round"/>
<path d="M395.815 109.529C394.924 112.639 391.925 126.755 394.034 133.307" stroke="#1F161E" stroke-linecap="round"/>
<path d="M405.684 147.569C407.697 148.987 426.991 157.523 453.667 154.302" stroke="#1F161E" stroke-linecap="round"/>
<path fill-rule="evenodd" clip-rule="evenodd" d="M403.838 133.312C405.132 133.518 400.914 130.149 398.524 131.404C396.134 132.66 392.913 138.329 393.572 139.643C393.752 140.126 394.141 140.501 394.63 140.664C395.119 140.826 395.656 140.758 396.089 140.478C396.736 140.06 401.582 132.949 403.838 133.312Z" fill="#F8CDBA"/>
<path fill-rule="evenodd" clip-rule="evenodd" d="M443.048 310.032C443.737 310.535 449.852 314.672 449.902 317.279C449.952 319.886 444.205 328.527 443.048 328.773C441.891 329.02 441.065 328.043 441.065 326.297C441.065 324.551 443.247 321.491 442.957 320.132C442.668 318.773 439.842 316.288 438.393 316.243" fill="#EBEBEB" fill-opacity="0.25098"/>
<path fill-rule="evenodd" clip-rule="evenodd" d="M411.058 325.724C411.058 326.923 411.753 334.439 410.364 335.139C408.974 335.838 393.646 336.251 392.952 335.556C392.257 334.861 391.835 333.398 392.449 332.98C393.063 332.562 398.993 331.375 399.796 330.822C400.98 329.403 401.526 327.558 401.305 325.724" fill="#EBEBEB" fill-opacity="0.25098"/>
<rect x="13.0896" y="269.904" width="97.3154" height="49.3623" fill="#B37361"/>
<path fill-rule="evenodd" clip-rule="evenodd" d="M158.348 246.77C158.771 249.286 165.947 306.811 167.11 307.762C168.273 308.713 180.616 310.821 181.673 309.241C181.885 306.724 182.176 266.607 182.83 263.019" fill="#1F161E"/>
<path fill-rule="evenodd" clip-rule="evenodd" d="M19.5062 234.768C14.5293 232.317 24.9063 280.899 52.2166 280.899C79.527 280.899 125.497 239.298 132.94 239.298C149.371 239.298 188.265 271.555 191.315 271.555C193.65 269.22 198.32 265.134 198.32 263.504C198.32 261.873 161.081 200.599 133.216 200.599C122.413 200.613 30.7438 240.318 19.5062 234.768Z" fill="#004F97"/>
<path fill-rule="evenodd" clip-rule="evenodd" d="M34.8754 235.596C40.3356 234.358 47.1296 231.152 53.1427 227.876C36.782 233.22 23.3761 236.682 19.5062 234.77C16.8689 233.472 18.5399 246.476 24.7416 259.001C23.6171 256.578 22.0171 238.532 34.8754 235.596Z" fill="#1F161E"/>
<path fill-rule="evenodd" clip-rule="evenodd" d="M46.9115 150.365C51.2143 150.481 73.6132 149.82 79.7528 155.669C84.3065 160.007 98.4683 197.312 100.652 210.411C91.1409 215.247 22.5352 248.093 1.30883 233.651C0.840915 222.429 3.02016 177.817 16.906 154.422C21.9822 151.039 42.7755 150.259 46.9115 150.365Z" fill="white"/>
<path fill-rule="evenodd" clip-rule="evenodd" d="M55.6382 139.692H42.5497V153.752C42.5497 157.275 55.6382 157.242 55.6382 153.752V139.692Z" fill="#F8CDBA"/>
<path fill-rule="evenodd" clip-rule="evenodd" d="M42.554 148.181C42.554 146.621 46.8765 142.701 49.5488 142.836C49.6142 141.1 43.4408 138.604 43.4408 138.604L42.5497 141.004L42.554 148.181Z" fill="#1F161E"/>
<path fill-rule="evenodd" clip-rule="evenodd" d="M69.3408 139.692C69.6348 138.33 69.7832 136.94 69.7836 135.547C69.7836 125.17 61.6763 116.756 51.6669 116.756C41.6574 116.756 33.5502 125.17 33.5502 135.547C33.5502 136.935 33.6982 138.324 33.9919 139.686L69.3408 139.692Z" fill="#1F161E"/>
<path fill-rule="evenodd" clip-rule="evenodd" d="M64.5657 127.025C62.3461 126.688 60.132 124.942 58.5875 123.8C49.7811 130.251 44.1399 130.333 43.5302 130.333C42.9205 130.333 40.4403 133.897 39.2983 134.299L39.1979 134.239C40.108 139.368 43.8395 143.542 48.835 145.018C53.8305 146.494 59.2312 145.019 62.7828 141.208C66.3344 137.398 67.4264 131.907 65.603 127.027C65.2589 127.07 64.9109 127.07 64.5668 127.027L64.5657 127.025Z" fill="#F8CDBA"/>
<circle cx="41.8549" cy="113.756" r="5.34449" fill="#1F161E"/>
<path d="M44.2349 130.05C43.0324 130.103 42.0849 131.093 42.0849 132.296C42.0849 133.5 43.0324 134.49 44.2349 134.543" stroke="#1F161E" stroke-linecap="round"/>
<path d="M61.3655 130.337C62.02 131.217 63.7204 132.762 61.3655 134.397" stroke="#1F161E" stroke-linecap="round"/>
<path d="M54.2247 135.575C54.1646 136.729 54.8471 137.792 55.9207 138.217" stroke="#1F161E" stroke-linecap="round"/>
<ellipse cx="49.8411" cy="134.655" rx="2.07344" ry="1.07653" fill="#FA9E9F"/>
<ellipse cx="65.2551" cy="134.655" rx="2.07344" ry="1.07653" fill="#FA9E9F"/>
<path fill-rule="evenodd" clip-rule="evenodd" d="M79.2805 189.25L93.2656 185.651C94.6093 187.936 101.151 210.385 101.151 210.385L79.5641 219.485C79.8444 215.232 80.694 195.757 79.2805 189.25Z" fill="#F8CDBA"/>
<path d="M30.2453 185.733C29.7675 189.499 29.0107 193.225 27.9811 196.88" stroke="#1F161E" stroke-linecap="round"/>
<path d="M79.2805 189.251C78.9435 186.589 76.9704 171.589 73.6088 163.692" stroke="#1F161E" stroke-linecap="round"/>
<path fill-rule="evenodd" clip-rule="evenodd" d="M79.2805 189.25L93.2656 185.651C94.6093 187.936 101.151 210.385 101.151 210.385L79.5641 219.485C79.8444 215.232 80.694 195.757 79.2805 189.25Z" fill="#F8CDBA"/>
<path fill-rule="evenodd" clip-rule="evenodd" d="M191.733 270.366C192.045 270.869 196.211 275.982 197.686 276.038C199.161 276.094 208.113 270.029 207.72 268.73C207.328 267.431 201.712 268.278 200.745 267.82C199.321 266.922 198.129 265.699 197.268 264.252" fill="#1F161E"/>
<path fill-rule="evenodd" clip-rule="evenodd" d="M169.716 308.296C169.607 308.854 169.042 315.442 170.063 316.509C171.083 317.576 181.733 319.428 182.357 318.215C182.981 317.002 178.331 313.716 177.973 312.72C177.579 311.086 177.579 309.382 177.973 307.749" fill="#1F161E"/>
<path fill-rule="evenodd" clip-rule="evenodd" d="M153.014 211.795H105.624L116.907 181.898H164.296L153.014 211.795Z" fill="#969696"/>
<rect x="66.1364" y="210.669" width="47.3892" height="1.1267" fill="#969696"/>
<path fill-rule="evenodd" clip-rule="evenodd" d="M27.9811 196.884C27.0703 200.286 22.6464 214.881 24.4483 217.396C26.2501 219.911 71.3696 214.21 83.4427 210.452C86.5174 209.445 88.797 206.809 90.1603 206.466C93.7869 205.851 97.2939 208.069 98.2927 211.609C93.4761 213.944 23.8647 249.483 1.31101 233.666C-2.95149 230.612 4.52642 193.372 4.86891 191.495C8.67658 191.953 27.9811 196.884 27.9811 196.884Z" fill="#F8CDBA"/>
<path d="M79.925 211.358C81.2841 211.031 82.4719 210.719 83.448 210.417C86.5228 209.41 88.8023 206.774 90.1657 206.431C93.7923 205.816 97.2993 208.034 98.2981 211.574" stroke="#1F161E" stroke-linecap="round"/>
</g>
</svg>
