<svg width="48" height="48" viewBox="0 0 48 48" fill="none" xmlns="http://www.w3.org/2000/svg">
<path d="M34.9272 39.7358L29.685 20.7229L25.0469 19.5898V25.9828L26.941 40.1317C27.007 40.625 27.428 40.9934 27.9256 40.9934H33.9694C34.6256 40.9934 35.1016 40.3684 34.9272 39.7358Z" fill="#00112A"/>
<path d="M23.0196 19.5898L18.3792 20.7234L13.1301 39.7355C12.9555 40.3682 13.4314 40.9934 14.0878 40.9934H20.1408C20.6385 40.9934 21.0594 40.625 21.1255 40.1317L23.0196 25.983V19.5898Z" fill="#00112A"/>
<path d="M17.1406 7.08203L24.0332 13.9747L30.9259 7.08203H17.1406Z" fill="#00112A"/>
<path d="M23.0219 15.7739L14.4553 7.20732C14.3493 7.09963 14.1881 7.05691 14.0424 7.09665C13.8951 7.13606 13.7792 7.25203 13.7398 7.39906L11.0525 18.541C10.8272 19.4752 11.6709 20.3166 12.6045 20.0885L23.0219 17.5436V15.7739Z" fill="#00112A"/>
<path d="M37.0163 18.5411L34.329 7.39903C34.2895 7.252 34.1736 7.13603 34.0264 7.09662C33.8806 7.05695 33.7194 7.0996 33.6134 7.20729L25.0469 15.7739V17.5437L35.4643 20.0886C36.3979 20.3166 37.2417 19.4753 37.0163 18.5411Z" fill="#00112A"/>
</svg>
