<svg width="25" height="24" viewBox="0 0 25 24" fill="none" xmlns="http://www.w3.org/2000/svg">
<path d="M6.5 5.68473V14.5258L8.70539 13.182V5.68473C8.70539 5.07573 8.2117 4.58203 7.6027 4.58203C6.99369 4.58203 6.5 5.07573 6.5 5.68473Z" fill="white"/>
<path d="M8.70539 18.3143V14.9558L6.5 16.2995V18.3143C6.5 18.9233 6.99369 19.417 7.6027 19.417C8.2117 19.417 8.70539 18.9233 8.70539 18.3143Z" fill="white"/>
<path d="M11.7679 11.3545V5.68473C11.7679 5.07573 11.2742 4.58203 10.6652 4.58203C10.0562 4.58203 9.5625 5.07573 9.5625 5.68473V12.6983L11.7679 11.3545Z" fill="white"/>
<path d="M9.5625 14.472V18.2606C9.5625 18.8696 10.0562 19.3633 10.6652 19.3633C11.2742 19.3633 11.7679 18.8696 11.7679 18.2606V13.1283L9.5625 14.472Z" fill="white"/>
<path d="M14.8304 9.52705V5.68473C14.8304 5.07573 14.3367 4.58203 13.7277 4.58203C13.1187 4.58203 12.625 5.07572 12.625 5.68473V10.8708L14.8304 9.52705Z" fill="white"/>
<path d="M12.625 12.6445V18.3143C12.625 18.9233 13.1187 19.417 13.7277 19.417C14.3367 19.417 14.8304 18.9233 14.8304 18.3143V11.3008L12.625 12.6445Z" fill="white"/>
<path d="M15.6875 5.68473V9.0433L17.8929 7.69956V5.68473C17.8929 5.07573 17.3992 4.58203 16.7902 4.58203C16.1812 4.58203 15.6875 5.07573 15.6875 5.68473Z" fill="white"/>
<path d="M17.8929 18.3143L17.8929 9.4733L15.6875 10.7633L15.6875 18.3143C15.6875 18.9233 16.1812 19.417 16.7902 19.417C17.3992 19.417 17.8929 18.9233 17.8929 18.3143Z" fill="white"/>
</svg>
